<mxfile host="Electron" modified="2024-02-29T10:50:53.950Z" agent="Mozilla/5.0 (Macintosh; Intel Mac OS X 10_15_7) AppleWebKit/537.36 (KHTML, like Gecko) draw.io/23.1.5 Chrome/120.0.6099.109 Electron/28.1.0 Safari/537.36" version="23.1.5" etag="Hredtlz9XnEniMNXnFiM" type="device" pages="2">
  <diagram id="C5RBs43oDa-KdzZeNtuy" name="Page-1">
    <mxGraphModel dx="1266" dy="772" grid="1" gridSize="10" guides="1" tooltips="1" connect="1" arrows="1" fold="1" page="1" pageScale="1" pageWidth="827" pageHeight="1169" math="0" shadow="0">
      <root>
        <mxCell id="WIyWlLk6GJQsqaUBKTNV-0" />
        <mxCell id="WIyWlLk6GJQsqaUBKTNV-1" parent="WIyWlLk6GJQsqaUBKTNV-0" />
        <mxCell id="WIyWlLk6GJQsqaUBKTNV-2" value="" style="rounded=0;html=1;jettySize=auto;orthogonalLoop=1;fontSize=11;endArrow=block;endFill=0;endSize=8;strokeWidth=1;shadow=0;labelBackgroundColor=none;edgeStyle=orthogonalEdgeStyle;" parent="WIyWlLk6GJQsqaUBKTNV-1" source="WIyWlLk6GJQsqaUBKTNV-3" target="WIyWlLk6GJQsqaUBKTNV-6" edge="1">
          <mxGeometry relative="1" as="geometry" />
        </mxCell>
        <mxCell id="WIyWlLk6GJQsqaUBKTNV-3" value="Lamp doesn&#39;t work" style="rounded=1;whiteSpace=wrap;html=1;fontSize=12;glass=0;strokeWidth=1;shadow=0;" parent="WIyWlLk6GJQsqaUBKTNV-1" vertex="1">
          <mxGeometry x="160" y="80" width="120" height="40" as="geometry" />
        </mxCell>
        <mxCell id="WIyWlLk6GJQsqaUBKTNV-4" value="Yes" style="rounded=0;html=1;jettySize=auto;orthogonalLoop=1;fontSize=11;endArrow=block;endFill=0;endSize=8;strokeWidth=1;shadow=0;labelBackgroundColor=none;edgeStyle=orthogonalEdgeStyle;" parent="WIyWlLk6GJQsqaUBKTNV-1" source="WIyWlLk6GJQsqaUBKTNV-6" target="WIyWlLk6GJQsqaUBKTNV-10" edge="1">
          <mxGeometry y="20" relative="1" as="geometry">
            <mxPoint as="offset" />
          </mxGeometry>
        </mxCell>
        <mxCell id="WIyWlLk6GJQsqaUBKTNV-5" value="No" style="edgeStyle=orthogonalEdgeStyle;rounded=0;html=1;jettySize=auto;orthogonalLoop=1;fontSize=11;endArrow=block;endFill=0;endSize=8;strokeWidth=1;shadow=0;labelBackgroundColor=none;" parent="WIyWlLk6GJQsqaUBKTNV-1" source="WIyWlLk6GJQsqaUBKTNV-6" target="WIyWlLk6GJQsqaUBKTNV-7" edge="1">
          <mxGeometry y="10" relative="1" as="geometry">
            <mxPoint as="offset" />
          </mxGeometry>
        </mxCell>
        <mxCell id="WIyWlLk6GJQsqaUBKTNV-6" value="Lamp&lt;br&gt;plugged in?" style="rhombus;whiteSpace=wrap;html=1;shadow=0;fontFamily=Helvetica;fontSize=12;align=center;strokeWidth=1;spacing=6;spacingTop=-4;" parent="WIyWlLk6GJQsqaUBKTNV-1" vertex="1">
          <mxGeometry x="170" y="170" width="100" height="80" as="geometry" />
        </mxCell>
        <mxCell id="WIyWlLk6GJQsqaUBKTNV-7" value="Plug in lamp" style="rounded=1;whiteSpace=wrap;html=1;fontSize=12;glass=0;strokeWidth=1;shadow=0;" parent="WIyWlLk6GJQsqaUBKTNV-1" vertex="1">
          <mxGeometry x="320" y="190" width="120" height="40" as="geometry" />
        </mxCell>
        <mxCell id="WIyWlLk6GJQsqaUBKTNV-8" value="No" style="rounded=0;html=1;jettySize=auto;orthogonalLoop=1;fontSize=11;endArrow=block;endFill=0;endSize=8;strokeWidth=1;shadow=0;labelBackgroundColor=none;edgeStyle=orthogonalEdgeStyle;" parent="WIyWlLk6GJQsqaUBKTNV-1" source="WIyWlLk6GJQsqaUBKTNV-10" target="WIyWlLk6GJQsqaUBKTNV-11" edge="1">
          <mxGeometry x="0.3333" y="20" relative="1" as="geometry">
            <mxPoint as="offset" />
          </mxGeometry>
        </mxCell>
        <mxCell id="WIyWlLk6GJQsqaUBKTNV-9" value="Yes" style="edgeStyle=orthogonalEdgeStyle;rounded=0;html=1;jettySize=auto;orthogonalLoop=1;fontSize=11;endArrow=block;endFill=0;endSize=8;strokeWidth=1;shadow=0;labelBackgroundColor=none;" parent="WIyWlLk6GJQsqaUBKTNV-1" source="WIyWlLk6GJQsqaUBKTNV-10" target="WIyWlLk6GJQsqaUBKTNV-12" edge="1">
          <mxGeometry y="10" relative="1" as="geometry">
            <mxPoint as="offset" />
          </mxGeometry>
        </mxCell>
        <mxCell id="WIyWlLk6GJQsqaUBKTNV-10" value="Bulb&lt;br&gt;burned out?" style="rhombus;whiteSpace=wrap;html=1;shadow=0;fontFamily=Helvetica;fontSize=12;align=center;strokeWidth=1;spacing=6;spacingTop=-4;" parent="WIyWlLk6GJQsqaUBKTNV-1" vertex="1">
          <mxGeometry x="170" y="290" width="100" height="80" as="geometry" />
        </mxCell>
        <mxCell id="WIyWlLk6GJQsqaUBKTNV-11" value="Repair Lamp" style="rounded=1;whiteSpace=wrap;html=1;fontSize=12;glass=0;strokeWidth=1;shadow=0;" parent="WIyWlLk6GJQsqaUBKTNV-1" vertex="1">
          <mxGeometry x="160" y="430" width="120" height="40" as="geometry" />
        </mxCell>
        <mxCell id="WIyWlLk6GJQsqaUBKTNV-12" value="Replace Bulb" style="rounded=1;whiteSpace=wrap;html=1;fontSize=12;glass=0;strokeWidth=1;shadow=0;" parent="WIyWlLk6GJQsqaUBKTNV-1" vertex="1">
          <mxGeometry x="320" y="310" width="120" height="40" as="geometry" />
        </mxCell>
      </root>
    </mxGraphModel>
  </diagram>
  <diagram id="BKmr4Nb3eS-tfpP02rTx" name="InsertionSort">
    <mxGraphModel dx="1326" dy="866" grid="1" gridSize="10" guides="1" tooltips="1" connect="1" arrows="1" fold="1" page="1" pageScale="1" pageWidth="827" pageHeight="1169" background="none" math="0" shadow="0">
      <root>
        <mxCell id="0" />
        <mxCell id="1" parent="0" />
        <mxCell id="c5Uz9ChSaUJBmlvAa1A5-2" value="Start" style="strokeWidth=1;html=1;shape=mxgraph.flowchart.start_1;whiteSpace=wrap;fontFamily=Courier New;fontStyle=1;fillColor=#d5e8d4;strokeColor=#82b366;" vertex="1" parent="1">
          <mxGeometry x="85.03" y="39" width="90" height="40" as="geometry" />
        </mxCell>
        <mxCell id="c5Uz9ChSaUJBmlvAa1A5-4" value="&amp;nbsp;Init arr" style="shape=parallelogram;html=1;strokeWidth=1;perimeter=parallelogramPerimeter;whiteSpace=wrap;rounded=1;arcSize=12;size=0.23;fontFamily=Courier New;fontStyle=1;fillColor=#f5f5f5;fontColor=#333333;strokeColor=#666666;" vertex="1" parent="1">
          <mxGeometry x="72.53" y="99" width="115" height="40" as="geometry" />
        </mxCell>
        <mxCell id="c5Uz9ChSaUJBmlvAa1A5-5" value="Print Before Sort" style="rounded=1;whiteSpace=wrap;html=1;fontSize=12;glass=0;strokeWidth=1;shadow=0;fontFamily=Courier New;fontStyle=1;fillColor=#e1d5e7;strokeColor=#9673a6;" vertex="1" parent="1">
          <mxGeometry x="50.03" y="159" width="160" height="40" as="geometry" />
        </mxCell>
        <mxCell id="c5Uz9ChSaUJBmlvAa1A5-6" value="Print After Sort" style="rounded=1;whiteSpace=wrap;html=1;fontSize=12;glass=0;strokeWidth=1;shadow=0;fontFamily=Courier New;fontStyle=1;fillColor=#e1d5e7;strokeColor=#9673a6;" vertex="1" parent="1">
          <mxGeometry x="260.03" y="579" width="120" height="40" as="geometry" />
        </mxCell>
        <mxCell id="c5Uz9ChSaUJBmlvAa1A5-19" value="" style="edgeStyle=orthogonalEdgeStyle;rounded=0;orthogonalLoop=1;jettySize=auto;html=1;" edge="1" parent="1" source="c5Uz9ChSaUJBmlvAa1A5-9" target="c5Uz9ChSaUJBmlvAa1A5-18">
          <mxGeometry relative="1" as="geometry" />
        </mxCell>
        <mxCell id="c5Uz9ChSaUJBmlvAa1A5-20" value="&lt;font face=&quot;Courier New&quot;&gt;&lt;b&gt;Yes&lt;/b&gt;&lt;/font&gt;" style="edgeLabel;html=1;align=center;verticalAlign=middle;resizable=0;points=[];" vertex="1" connectable="0" parent="c5Uz9ChSaUJBmlvAa1A5-19">
          <mxGeometry x="0.0593" y="2" relative="1" as="geometry">
            <mxPoint x="-18" y="-3" as="offset" />
          </mxGeometry>
        </mxCell>
        <mxCell id="c5Uz9ChSaUJBmlvAa1A5-46" style="edgeStyle=orthogonalEdgeStyle;rounded=0;orthogonalLoop=1;jettySize=auto;html=1;exitX=1;exitY=0.5;exitDx=0;exitDy=0;entryX=0.5;entryY=0;entryDx=0;entryDy=0;" edge="1" parent="1" source="c5Uz9ChSaUJBmlvAa1A5-9" target="c5Uz9ChSaUJBmlvAa1A5-6">
          <mxGeometry relative="1" as="geometry" />
        </mxCell>
        <mxCell id="c5Uz9ChSaUJBmlvAa1A5-47" value="&lt;font face=&quot;Courier New&quot;&gt;&lt;b&gt;No&lt;/b&gt;&lt;/font&gt;" style="edgeLabel;html=1;align=center;verticalAlign=middle;resizable=0;points=[];" vertex="1" connectable="0" parent="c5Uz9ChSaUJBmlvAa1A5-46">
          <mxGeometry x="-0.1918" y="-3" relative="1" as="geometry">
            <mxPoint x="-97" y="-33" as="offset" />
          </mxGeometry>
        </mxCell>
        <mxCell id="c5Uz9ChSaUJBmlvAa1A5-9" value="i &amp;lt; arr.len" style="rhombus;whiteSpace=wrap;html=1;shadow=0;fontFamily=Courier New;fontSize=12;align=center;strokeWidth=1;spacing=6;spacingTop=-4;fontStyle=1;fillColor=#ffe6cc;strokeColor=#d79b00;" vertex="1" parent="1">
          <mxGeometry x="70.03" y="279" width="120" height="100" as="geometry" />
        </mxCell>
        <mxCell id="c5Uz9ChSaUJBmlvAa1A5-10" value="set i = 1&lt;br&gt;&lt;span style=&quot;font-weight: normal;&quot;&gt;start from 1st index&lt;/span&gt;" style="rounded=1;whiteSpace=wrap;html=1;fontSize=12;glass=0;strokeWidth=1;shadow=0;fontFamily=Courier New;fontStyle=1;fillColor=#dae8fc;strokeColor=#6c8ebf;" vertex="1" parent="1">
          <mxGeometry x="50.03" y="219" width="160" height="40" as="geometry" />
        </mxCell>
        <mxCell id="c5Uz9ChSaUJBmlvAa1A5-11" value="Sorted Array" style="strokeWidth=1;html=1;shape=mxgraph.flowchart.start_1;whiteSpace=wrap;fontFamily=Courier New;fontStyle=1;fillColor=#d5e8d4;strokeColor=#82b366;" vertex="1" parent="1">
          <mxGeometry x="273.78" y="749" width="92.5" height="70" as="geometry" />
        </mxCell>
        <mxCell id="c5Uz9ChSaUJBmlvAa1A5-18" value="&lt;font&gt;&lt;span&gt;set key = arr[i]&lt;br&gt;&lt;span style=&quot;font-weight: normal;&quot;&gt;keep ref of 1st index value&lt;/span&gt;&lt;br&gt;&lt;/span&gt;&lt;/font&gt;" style="rounded=1;whiteSpace=wrap;html=1;fontSize=12;glass=0;strokeWidth=1;shadow=0;fontFamily=Courier New;fontStyle=1;fillColor=#dae8fc;strokeColor=#6c8ebf;" vertex="1" parent="1">
          <mxGeometry x="50.03" y="409" width="160" height="50" as="geometry" />
        </mxCell>
        <mxCell id="c5Uz9ChSaUJBmlvAa1A5-35" value="" style="edgeStyle=orthogonalEdgeStyle;rounded=0;orthogonalLoop=1;jettySize=auto;html=1;" edge="1" parent="1" source="c5Uz9ChSaUJBmlvAa1A5-21" target="c5Uz9ChSaUJBmlvAa1A5-22">
          <mxGeometry relative="1" as="geometry" />
        </mxCell>
        <mxCell id="c5Uz9ChSaUJBmlvAa1A5-21" value="&lt;font&gt;&lt;span&gt;set j = i - 1&lt;/span&gt;&lt;/font&gt;" style="rounded=1;whiteSpace=wrap;html=1;fontSize=12;glass=0;strokeWidth=1;shadow=0;fontFamily=Courier New;fontStyle=1;fillColor=#dae8fc;strokeColor=#6c8ebf;" vertex="1" parent="1">
          <mxGeometry x="50" y="479" width="160" height="40" as="geometry" />
        </mxCell>
        <mxCell id="c5Uz9ChSaUJBmlvAa1A5-37" value="" style="edgeStyle=orthogonalEdgeStyle;rounded=0;orthogonalLoop=1;jettySize=auto;html=1;" edge="1" parent="1" source="c5Uz9ChSaUJBmlvAa1A5-22" target="c5Uz9ChSaUJBmlvAa1A5-36">
          <mxGeometry relative="1" as="geometry" />
        </mxCell>
        <mxCell id="c5Uz9ChSaUJBmlvAa1A5-38" value="Yes" style="edgeLabel;html=1;align=center;verticalAlign=middle;resizable=0;points=[];fontFamily=Courier New;fontStyle=1" vertex="1" connectable="0" parent="c5Uz9ChSaUJBmlvAa1A5-37">
          <mxGeometry x="0.2459" relative="1" as="geometry">
            <mxPoint x="-20" y="-15" as="offset" />
          </mxGeometry>
        </mxCell>
        <mxCell id="c5Uz9ChSaUJBmlvAa1A5-22" value="j &amp;gt;= 0&lt;br&gt;and&lt;br&gt;arr[j] &amp;gt; key" style="rhombus;whiteSpace=wrap;html=1;shadow=0;fontFamily=Courier New;fontSize=12;align=center;strokeWidth=1;spacing=6;spacingTop=-4;fontStyle=1;fillColor=#ffe6cc;strokeColor=#d79b00;fillStyle=auto;" vertex="1" parent="1">
          <mxGeometry x="50.03" y="539" width="160" height="120" as="geometry" />
        </mxCell>
        <mxCell id="c5Uz9ChSaUJBmlvAa1A5-23" value="" style="endArrow=classic;html=1;rounded=0;exitX=0.5;exitY=1;exitDx=0;exitDy=0;exitPerimeter=0;entryX=0.5;entryY=0;entryDx=0;entryDy=0;" edge="1" parent="1" source="c5Uz9ChSaUJBmlvAa1A5-2" target="c5Uz9ChSaUJBmlvAa1A5-4">
          <mxGeometry width="50" height="50" relative="1" as="geometry">
            <mxPoint x="250.02999999999997" y="109" as="sourcePoint" />
            <mxPoint x="130.03" y="109" as="targetPoint" />
          </mxGeometry>
        </mxCell>
        <mxCell id="c5Uz9ChSaUJBmlvAa1A5-25" value="" style="endArrow=classic;html=1;rounded=0;exitX=0.5;exitY=1;exitDx=0;exitDy=0;exitPerimeter=0;" edge="1" parent="1">
          <mxGeometry width="50" height="50" relative="1" as="geometry">
            <mxPoint x="129.66" y="139" as="sourcePoint" />
            <mxPoint x="130.03" y="159" as="targetPoint" />
          </mxGeometry>
        </mxCell>
        <mxCell id="c5Uz9ChSaUJBmlvAa1A5-30" value="" style="endArrow=classic;html=1;rounded=0;exitX=0.5;exitY=1;exitDx=0;exitDy=0;entryX=0.5;entryY=0;entryDx=0;entryDy=0;" edge="1" parent="1" source="c5Uz9ChSaUJBmlvAa1A5-5" target="c5Uz9ChSaUJBmlvAa1A5-10">
          <mxGeometry width="50" height="50" relative="1" as="geometry">
            <mxPoint x="159.66" y="169" as="sourcePoint" />
            <mxPoint x="160.03" y="189" as="targetPoint" />
          </mxGeometry>
        </mxCell>
        <mxCell id="c5Uz9ChSaUJBmlvAa1A5-31" value="" style="endArrow=classic;html=1;rounded=0;entryX=0.5;entryY=0;entryDx=0;entryDy=0;" edge="1" parent="1" target="c5Uz9ChSaUJBmlvAa1A5-9">
          <mxGeometry width="50" height="50" relative="1" as="geometry">
            <mxPoint x="130.03" y="259" as="sourcePoint" />
            <mxPoint x="140.03" y="229" as="targetPoint" />
          </mxGeometry>
        </mxCell>
        <mxCell id="c5Uz9ChSaUJBmlvAa1A5-34" value="" style="endArrow=classic;html=1;rounded=0;exitX=0.5;exitY=1;exitDx=0;exitDy=0;" edge="1" parent="1" source="c5Uz9ChSaUJBmlvAa1A5-18" target="c5Uz9ChSaUJBmlvAa1A5-21">
          <mxGeometry width="50" height="50" relative="1" as="geometry">
            <mxPoint x="140.03" y="269" as="sourcePoint" />
            <mxPoint x="140.03" y="289" as="targetPoint" />
          </mxGeometry>
        </mxCell>
        <mxCell id="c5Uz9ChSaUJBmlvAa1A5-43" value="" style="edgeStyle=orthogonalEdgeStyle;rounded=0;orthogonalLoop=1;jettySize=auto;html=1;" edge="1" parent="1" source="c5Uz9ChSaUJBmlvAa1A5-36" target="c5Uz9ChSaUJBmlvAa1A5-42">
          <mxGeometry relative="1" as="geometry" />
        </mxCell>
        <mxCell id="c5Uz9ChSaUJBmlvAa1A5-36" value="&lt;font&gt;&lt;span&gt;set arr[j+1] = arr[j]&lt;br&gt;&lt;br&gt;j--&lt;br&gt;&lt;/span&gt;&lt;/font&gt;" style="rounded=1;whiteSpace=wrap;html=1;fontSize=12;glass=0;strokeWidth=1;shadow=0;fontFamily=Courier New;fontStyle=1;fillColor=#dae8fc;strokeColor=#6c8ebf;" vertex="1" parent="1">
          <mxGeometry x="50.03" y="700" width="160" height="60" as="geometry" />
        </mxCell>
        <mxCell id="c5Uz9ChSaUJBmlvAa1A5-44" style="edgeStyle=orthogonalEdgeStyle;rounded=0;orthogonalLoop=1;jettySize=auto;html=1;entryX=0;entryY=0.5;entryDx=0;entryDy=0;" edge="1" parent="1" target="c5Uz9ChSaUJBmlvAa1A5-22">
          <mxGeometry relative="1" as="geometry">
            <mxPoint x="50.03" y="569" as="targetPoint" />
            <mxPoint x="130.03" y="779" as="sourcePoint" />
            <Array as="points">
              <mxPoint x="130" y="810" />
              <mxPoint x="10" y="810" />
              <mxPoint x="10" y="599" />
            </Array>
          </mxGeometry>
        </mxCell>
        <mxCell id="c5Uz9ChSaUJBmlvAa1A5-42" value="&lt;font&gt;&lt;span&gt;set arr[j+1] = key&lt;br&gt;&lt;span style=&quot;font-weight: normal;&quot;&gt;insert key to correct position&lt;/span&gt;&lt;br&gt;&lt;/span&gt;&lt;/font&gt;" style="rounded=1;whiteSpace=wrap;html=1;fontSize=12;glass=0;strokeWidth=1;shadow=0;fontFamily=Courier New;fontStyle=1;fillColor=#dae8fc;strokeColor=#6c8ebf;" vertex="1" parent="1">
          <mxGeometry x="50.03" y="780" width="160" height="60" as="geometry" />
        </mxCell>
        <mxCell id="c5Uz9ChSaUJBmlvAa1A5-45" style="edgeStyle=orthogonalEdgeStyle;rounded=0;orthogonalLoop=1;jettySize=auto;html=1;entryX=0.5;entryY=0;entryDx=0;entryDy=0;entryPerimeter=0;" edge="1" parent="1" source="c5Uz9ChSaUJBmlvAa1A5-6" target="c5Uz9ChSaUJBmlvAa1A5-11">
          <mxGeometry relative="1" as="geometry" />
        </mxCell>
        <mxCell id="c5Uz9ChSaUJBmlvAa1A5-49" style="edgeStyle=orthogonalEdgeStyle;rounded=0;orthogonalLoop=1;jettySize=auto;html=1;" edge="1" parent="1" target="c5Uz9ChSaUJBmlvAa1A5-6">
          <mxGeometry relative="1" as="geometry">
            <mxPoint x="210.03" y="599" as="sourcePoint" />
            <mxPoint x="230.03" y="418.96" as="targetPoint" />
            <Array as="points">
              <mxPoint x="240.03" y="599" />
              <mxPoint x="240.03" y="599" />
            </Array>
          </mxGeometry>
        </mxCell>
        <mxCell id="c5Uz9ChSaUJBmlvAa1A5-52" value="&lt;font face=&quot;Courier New&quot;&gt;&lt;b&gt;No&lt;/b&gt;&lt;/font&gt;" style="edgeLabel;html=1;align=center;verticalAlign=middle;resizable=0;points=[];" vertex="1" connectable="0" parent="1">
          <mxGeometry x="280.00288362157926" y="350.03035982698157" as="geometry">
            <mxPoint x="-50" y="235" as="offset" />
          </mxGeometry>
        </mxCell>
      </root>
    </mxGraphModel>
  </diagram>
</mxfile>
